<svg xmlns="http://www.w3.org/2000/svg" width="1240" height="720" viewBox="0 0 1240 720" role="img" aria-labelledby="title desc">
  <title id="title">KeySurgeon workflow demo</title>
  <desc id="desc">Generated workflow demo showing watch, diagnosis, repair, and readiness commands.</desc>
  <defs>
    <linearGradient id="bg" x1="0" x2="1" y1="0" y2="1">
      <stop offset="0" stop-color="#071013"/>
      <stop offset="0.48" stop-color="#122026"/>
      <stop offset="1" stop-color="#11110d"/>
    </linearGradient>
    <filter id="soft" x="-20%" y="-20%" width="140%" height="140%">
      <feDropShadow dx="0" dy="18" stdDeviation="22" flood-color="#000000" flood-opacity="0.34"/>
    </filter>
  </defs>
  <style>
    .title { font: 800 54px Sora, Segoe UI, sans-serif; fill: #f6fbff; }
    .subtitle { font: 500 18px Sora, Segoe UI, sans-serif; fill: #a9bac2; }
    .frame-title { font: 800 24px Sora, Segoe UI, sans-serif; fill: #f6fbff; }
    .tag { font: 800 15px Sora, Segoe UI, sans-serif; }
    .mono { font: 500 18px JetBrains Mono, Cascadia Mono, Consolas, monospace; }
    .command { fill: #f6fbff; }
    .label { font-size: 15px; font-weight: 800; }
    .body { fill: #d7e4e8; font-size: 16px; }
    .rail { stroke-dasharray: 12 14; animation: dash 4.8s linear infinite; }
    .pulse { animation: pulse 2.2s ease-in-out infinite; transform-origin: center; }
    .frame { filter: url(#soft); }
    .frame-1 { animation: lift1 8s ease-in-out infinite; }
    .frame-2 { animation: lift2 8s ease-in-out infinite; }
    .frame-3 { animation: lift3 8s ease-in-out infinite; }
    .frame-4 { animation: lift4 8s ease-in-out infinite; }
    @keyframes dash { to { stroke-dashoffset: -104; } }
    @keyframes pulse { 0%, 100% { opacity: .7; } 50% { opacity: 1; } }
    @keyframes lift1 { 0%, 18% { transform: translateY(-6px); } 28%, 100% { transform: translateY(0); } }
    @keyframes lift2 { 0%, 22% { transform: translateY(0); } 32%, 48% { transform: translateY(-6px); } 58%, 100% { transform: translateY(0); } }
    @keyframes lift3 { 0%, 52% { transform: translateY(0); } 62%, 74% { transform: translateY(-6px); } 84%, 100% { transform: translateY(0); } }
    @keyframes lift4 { 0%, 78% { transform: translateY(0); } 88%, 100% { transform: translateY(-6px); } }
  </style>
  <rect width="1240" height="720" fill="url(#bg)"/>
  <circle class="pulse" cx="1118" cy="78" r="58" fill="#00d7e6" opacity="0.12"/>
  <circle class="pulse" cx="1118" cy="78" r="26" fill="#41d982" opacity="0.32"/>
  <text x="34" y="72" class="title">KeySurgeon</text>
  <text x="38" y="105" class="subtitle">A terminal workflow for catching keyboard chatter, choosing the repair, and checking what is ready.</text>
  <path class="rail" d="M585 238 C650 238 574 386 634 386 M614 238 C682 238 608 386 666 386" fill="none" stroke="#2a4650" stroke-width="4"/>
  <g class="frame frame-1">
<rect x="34" y="128" width="548" height="220" rx="18" fill="#111820" stroke="#00d7e6" stroke-width="2"/>
<rect x="52" y="146" width="52" height="28" rx="14" fill="#00d7e6" opacity="0.18"/>
<text x="69" y="166" class="tag" fill="#00d7e6">01</text>
<text x="122" y="168" class="frame-title">Watch the signal</text>
<rect x="58" y="190" width="500" height="36" rx="10" fill="#081116" stroke="#1f3440"/>
<text x="78" y="214" class="mono command">$ keysurgeon watch</text>
<text x="78" y="254" class="mono label" fill="#00d7e6">  signal</text>
<text x="166" y="254" class="mono body">E key bounced 2 hit(s) while typing</text>
<text x="78" y="284" class="mono label" fill="#00d7e6">  health</text>
<text x="166" y="284" class="mono body">evidence bar: 67/100, chatter rising</text>
<text x="78" y="314" class="mono label" fill="#00d7e6"> privacy</text>
<text x="166" y="314" class="mono body">labels and timing only, no typed text</text>
</g>
<g class="frame frame-2">
<rect x="623" y="128" width="548" height="220" rx="18" fill="#111820" stroke="#ff5a4d" stroke-width="2"/>
<rect x="641" y="146" width="52" height="28" rx="14" fill="#ff5a4d" opacity="0.18"/>
<text x="658" y="166" class="tag" fill="#ff5a4d">02</text>
<text x="711" y="168" class="frame-title">Diagnose the failure</text>
<rect x="647" y="190" width="500" height="36" rx="10" fill="#081116" stroke="#1f3440"/>
<text x="667" y="214" class="mono command">$ keysurgeon test E</text>
<text x="667" y="254" class="mono label" fill="#ff5a4d">   fault</text>
<text x="755" y="254" class="mono body">CHATTER DETECTED - E - 35/100</text>
<text x="667" y="284" class="mono label" fill="#ff5a4d">   proof</text>
<text x="755" y="284" class="mono body">re-press 31ms after release</text>
<text x="667" y="314" class="mono label" fill="#ff5a4d">    next</text>
<text x="755" y="314" class="mono body">run keysurgeon fix E</text>
</g>
<g class="frame frame-3">
<rect x="34" y="388" width="548" height="220" rx="18" fill="#111820" stroke="#41d982" stroke-width="2"/>
<rect x="52" y="406" width="52" height="28" rx="14" fill="#41d982" opacity="0.18"/>
<text x="69" y="426" class="tag" fill="#41d982">03</text>
<text x="122" y="428" class="frame-title">Repair in order</text>
<rect x="58" y="450" width="500" height="36" rx="10" fill="#081116" stroke="#1f3440"/>
<text x="78" y="474" class="mono command">$ keysurgeon fix E</text>
<text x="78" y="514" class="mono label" fill="#41d982">       1</text>
<text x="166" y="514" class="mono body">software filter</text>
<text x="78" y="544" class="mono label" fill="#41d982">       2</text>
<text x="166" y="544" class="mono body">blow out debris</text>
<text x="78" y="574" class="mono label" fill="#41d982">       3</text>
<text x="166" y="574" class="mono body">clean contact</text>
<text x="78" y="604" class="mono label" fill="#41d982">       4</text>
<text x="166" y="604" class="mono body">hot-swap the switch</text>
</g>
<g class="frame frame-4">
<rect x="623" y="388" width="548" height="220" rx="18" fill="#111820" stroke="#f5b83d" stroke-width="2"/>
<rect x="641" y="406" width="52" height="28" rx="14" fill="#f5b83d" opacity="0.18"/>
<text x="658" y="426" class="tag" fill="#f5b83d">04</text>
<text x="711" y="428" class="frame-title">Check the proof</text>
<rect x="647" y="450" width="500" height="36" rx="10" fill="#081116" stroke="#1f3440"/>
<text x="667" y="474" class="mono command">$ keysurgeon proof --json</text>
<text x="667" y="514" class="mono label" fill="#f5b83d">  assets</text>
<text x="755" y="514" class="mono body">demo provenance hashes verified</text>
<text x="667" y="544" class="mono label" fill="#f5b83d"> privacy</text>
<text x="755" y="544" class="mono body">no typed text stored or exported</text>
<text x="667" y="574" class="mono label" fill="#f5b83d"> blocked</text>
<text x="755" y="574" class="mono body">hardware smoke not recorded yet</text>
</g>
</svg>
